# xmcd CD database file generated by OrangeCD 6.4
#
# Track frame offsets:
#	150
#	9683
#	29564
#	48074
#	66325
#	123770
#	142455
#	175856
#	212478
#
# Disc length: 3200 seconds
#
# Revision: 0
# Processed by: cddbd v1.5.2PL0 Copyright (c) Steve Scherf et al.
# Submitted via: OrangeCD 6.4
#
DISCID=800c7e09
DTITLE=Jimi Hendrix - Rockin' The USA Vol.1
DYEAR=2008
DGENRE=Blues Rock
TTITLE0=Sgt. Pepper's Lonely Hearts Club Band
TTITLE1=Can You Please Crawl Out Of Your Window
TTITLE2=The Wind Cries Mary
TTITLE3=Fire
TTITLE4=Catfish Blues
TTITLE5=Foxy Lady
TTITLE6=Hey Joe
TTITLE7=Purple Haze
TTITLE8=Wild Thing
EXTD=Will Rogers Auditorium, Fort Worth, TX 1968-02-17
EXTT0=
EXTT1=
EXTT2=
EXTT3=
EXTT4=
EXTT5=
EXTT6=
EXTT7=
EXTT8=
PLAYORDER=
